<svg xmlns="http://www.w3.org/2000/svg" viewBox="0 0 256 256" role="img" aria-labelledby="title desc">
  <title id="title">Agnee app icon</title>
  <desc id="desc">Agnee conversational spark on a deep green app tile.</desc>
  <defs>
    <linearGradient id="agnee-tile" x1="24" y1="20" x2="232" y2="242" gradientUnits="userSpaceOnUse">
      <stop stop-color="#213C34"/>
      <stop offset="1" stop-color="#0A211A"/>
    </linearGradient>
    <linearGradient id="agnee-green" x1="68" y1="45" x2="192" y2="210" gradientUnits="userSpaceOnUse">
      <stop stop-color="#C7FF35"/>
      <stop offset="0.48" stop-color="#42DF58"/>
      <stop offset="1" stop-color="#00A96B"/>
    </linearGradient>
  </defs>
  <rect x="8" y="8" width="240" height="240" rx="58" fill="url(#agnee-tile)"/>
  <path fill="url(#agnee-green)" fill-rule="evenodd" d="M135 34c37 25 65 61 65 105 0 52-40 91-92 91H88l-29 18 9-35c-20-19-31-45-31-74 0-37 21-68 52-86-5 25 0 46 13 61 24-20 40-47 33-80Zm-1 70c20 18 30 37 27 57-3 27-24 48-53 48-11 0-21-4-30-10 27-4 44-17 52-37 8-18 9-38 4-58Z"/>
</svg>
